# xmcd
#
# Track frame offsets:
# 150
# 22080
# 42977
# 77994
# 106251
# 125810
# 144874
# 170665
# 199231
# 230741
# 255945
#
# Disc length: 3579 seconds
#
# Revision: 0
# Processed by: cddbd v1.4PL0 Copyright (c) Steve Scherf et al.
# Submitted via: Audion 3.0.2 (http://www.panic.com/audion/)
#
DISCID=990df90b
DTITLE=Diverse Musiker - Café Abstrait
DYEAR=1900
DGENRE=
TTITLE0=Café Abstrait01
TTITLE1=Café Abstrait02
TTITLE2=Café Abstrait03
TTITLE3=Café Abstrait04
TTITLE4=Café Abstrait05
TTITLE5=Café Abstrait06
TTITLE6=Café Abstrait07
TTITLE7=Café Abstrait08
TTITLE8=Café Abstrait09
TTITLE9=Café Abstrait10
TTITLE10=Café Abstrait11
EXTD=
EXTT0=
EXTT1=
EXTT2=
EXTT3=
EXTT4=
EXTT5=
EXTT6=
EXTT7=
EXTT8=
EXTT9=
EXTT10=
PLAYORDER=
